<svg xmlns="http://www.w3.org/2000/svg" viewBox="0 0 116 135"><path d="M68.34,131c-29.58,5.78-58.28-13.26-64-42.45s13.72-57.63,43.3-63.41,58.28,13.27,64,42.45S97.92,125.24,68.34,131ZM48.55,29.71C21.49,35,3.71,61,8.92,87.67s31.46,44.06,58.53,38.78,44.84-31.28,39.63-57.95S75.62,24.43,48.55,29.71Z" fill="#030712"/><rect x="41.89" y="19.61" width="10.62" height="7.16" transform="translate(-3.57 9.48) rotate(-11.05)" fill="#030712"/><polygon points="43.28 30.06 50.37 40.15 52.81 28.2 43.28 30.06" fill="#030712"/><polygon points="71.06 125.95 64.39 115.84 61.55 127.92 71.06 125.95" fill="#030712"/><path d="M68.34,131c-29.58,5.78-58.28-13.26-64-42.45s13.72-57.63,43.3-63.41,58.28,13.27,64,42.45S97.92,125.24,68.34,131ZM48.55,29.71C21.49,35,3.71,61,8.92,87.67s31.46,44.06,58.53,38.78,44.84-31.28,39.63-57.95S75.62,24.43,48.55,29.71Z" fill="#030712"/><rect x="42.02" y="19.58" width="10.62" height="7.16" transform="translate(-3.56 9.5) rotate(-11.05)" fill="#030712"/><path d="M47.27,22.21a9.83,9.83,0,0,1-11.6-7.63,9.93,9.93,0,0,1,19.48-3.81A9.83,9.83,0,0,1,47.27,22.21ZM44.08,5.88A7,7,0,0,0,38.41,14a7.13,7.13,0,0,0,14-2.73A7,7,0,0,0,44.08,5.88Z" fill="#030712"/><polygon points="10.07 94.46 20.17 87.77 8.08 84.96 10.07 94.46" fill="#030712"/><rect x="70.01" y="76.32" width="0.82" height="4.36" transform="translate(58.05 -26.23) rotate(35.16)" fill="#030712"/><polygon points="50.3 86.35 54.5 80.55 48.66 76.8 40.78 83.75 50.3 86.35" fill="#030712"/><path d="M63.53,67.06c-6.31,11.61-13.89,22.41-21.61,33.13a71.45,71.45,0,0,0-4.49,7.15c-1,1.73-.22,3.07,1.9,3.94,1.44.58,2.59.42,3.27-.75L53.24,92.19c2.74-4.69,5.45-9.41,8.27-14a5.4,5.4,0,0,1,4.18-2.58,3.67,3.67,0,0,0,2.47-1.27c5-7.9,9.44-16.1,12.1-25.21a7.46,7.46,0,0,0,.22-1.65,3.27,3.27,0,0,0-2.23-3.22c-1.48-.47-2,.51-2.46,1.35q-5.52,9.66-11,19.33C64.4,65.63,64,66.34,63.53,67.06Z" fill="#030712"/><path d="M25.64,60.11l12.87,9.13.42-.52c-3.68-3.77-8.2-6.6-12.06-10.19l.33-.42L40.14,67l.51-.68-6.09-4.81-6.07-4.8.33-.45,13,8.62.49-.67L29.71,55l.17-.36a13.86,13.86,0,0,1,2.42,1c4.47,2.77,8.9,5.6,13.34,8.4a5.32,5.32,0,0,1,2.53,4.75,4.34,4.34,0,0,0,1.89,3.76q10,7.2,20.09,14.44c4.78,3.43,9.6,6.82,14.37,10.29,1.73,1.25,1.86,2.71.59,4.36s-2.86,2-4.44.74q-4.83-3.84-9.46-8c-5.69-5.06-11.23-10.28-17-15.28A69,69,0,0,0,46.9,74a2.91,2.91,0,0,0-2.13-.48c-3.21.92-5.42-.51-7.47-2.24-3.71-3.14-7.33-6.38-11-9.59a14.31,14.31,0,0,1-1.05-1.15Z" fill="#030712"/><polygon points="51.9 72 57.01 76.22 59.88 70.44 54.58 62.36 51.9 72" fill="#030712"/><polygon points="58.66 84.71 63.21 88.74 61.28 98.75 55.79 90.65 58.66 84.71" fill="#030712"/><path d="M64.08,76.89c-.09.06-.21.23-.29.29L62.24,79.4l5.4,4.15,7.17-6-6.09-2.49a3.49,3.49,0,0,1-2.13,1.24C65.65,76.46,64.08,76.89,64.08,76.89Z" fill="#030712"/></svg>